<svg xmlns="http://www.w3.org/2000/svg" viewBox="8 5 56 62">
  <path d="M 24 27 C 24 25.3431 25.3431 24 27 24 H 45 C 46.6569 24 48 25.3431 48 27 C 48 28.6569 46.6569 30 45 30 H 27 C 25.3431 30 24 28.6569 24 27 Z M 24 39 C 24 37.3431 25.3431 36 27 36 H 39 C 40.6569 36 42 37.3431 42 39 C 42 40.6569 40.6569 42 39 42 H 27 C 25.3431 42 24 40.6569 24 39 Z M 12 18 C 12 13.0294 16.0294 9 21 9 H 51 C 55.9706 9 60 13.0294 60 18 V 54 C 60 58.9706 55.9706 63 51 63 H 21 C 16.0294 63 12 58.9706 12 54 V 18 Z M 21 15 H 51 C 52.6569 15 54 16.3431 54 18 V 54 C 54 55.6569 52.6569 57 51 57 H 21 C 19.3431 57 18 55.6569 18 54 V 18 C 18 16.3431 19.3431 15 21 15 Z" stroke="#2b6e62" stroke-width="4" fill="none"/>
</svg>